# xmcd CD database file
#
# Track frame offsets:
#	150
#	20925
#	47325
#	69075
#	97125
#	114225
#	139800
#	160950
#	192525
#	214350
#
# Disc length: 3082 seconds
#
# Revision: 0
# Processed by: cddbd v1.5.2PL0 Copyright (c) Steve Scherf et al.
# Submitted via: CDex 1.70beta1
#
DISCID=910c080a
DTITLE=仲田美穂 - CORAZON
DYEAR=2008
DGENRE=Jazz
TTITLE0=La Bamba
TTITLE1=Maria Cervantes
TTITLE2=Scherezada
TTITLE3=Birdland
TTITLE4=I'll Remember aprill
TTITLE5=Oleo
TTITLE6=Tombo
TTITLE7=Mi Querida
TTITLE8=Sweet Memories
TTITLE9=Mis Amigos
EXTD=YEAR: 2008
EXTT0=
EXTT1=
EXTT2=
EXTT3=
EXTT4=
EXTT5=
EXTT6=
EXTT7=
EXTT8=
EXTT9=
PLAYORDER=
